<svg width="110" height="23" viewBox="0 0 110 23" fill="none" xmlns="http://www.w3.org/2000/svg">
<path d="M19.2993 6.01321C16.0268 6.01321 13.6631 8.50879 13.6631 11.7633C13.6631 15.0178 16.0268 17.5149 19.2993 17.5149C22.5718 17.5149 24.9356 15.0178 24.9356 11.7633C24.9356 8.50879 22.5718 6.01321 19.2993 6.01321ZM19.2993 16.1398C17.1005 16.1398 15.9801 14.2309 15.9801 11.7633C15.9801 9.29719 17.1005 7.38671 19.2993 7.38671C21.4981 7.38671 22.6185 9.29719 22.6185 11.7633C22.6185 14.2309 21.4981 16.1398 19.2993 16.1398Z" fill="#060F0C"/>
<path d="M51.9665 15.6839C51.6957 15.85 51.3659 15.954 51.176 15.954C50.8726 15.954 50.7185 15.7972 50.7185 15.3363V10.0891C50.7185 7.58575 49.164 6.0136 46.3738 6.0136C43.8265 6.0136 42.1863 7.22569 42.1863 8.59763C42.1863 9.2386 42.6236 9.68712 43.2367 9.68712C43.8094 9.68712 44.1828 9.40621 44.4956 8.58056C44.8302 7.69438 45.269 7.33743 46.4874 7.33743C47.8817 7.33743 48.5602 8.07772 48.5602 9.59245V10.5562C43.5511 10.758 41.609 12.2153 41.609 14.3803C41.609 16.297 43.0686 17.4998 45.1678 17.4998C46.4796 17.4998 47.7806 16.8945 48.6769 15.9043C48.8714 16.9053 49.6028 17.357 50.6407 17.357C51.2071 17.357 51.8685 17.1257 52.4987 16.581L51.9665 15.6839ZM45.6876 15.9602C44.6699 15.9602 43.9774 15.3022 43.9774 14.2887C43.9774 12.9137 45.3204 11.9747 48.5602 11.7497V14.3461C47.7992 15.3999 46.6321 15.9602 45.6876 15.9602Z" fill="#060F0C"/>
<path d="M84.106 4.1428C84.6989 3.80447 85.1844 3.49563 85.3789 3.33112C85.9484 2.85466 86.0122 2.25715 85.6294 1.80087C85.2451 1.34614 84.6444 1.30424 84.0749 1.7807C83.8788 1.94365 83.4882 2.36579 83.0525 2.89036L81.5353 4.731L82.0255 5.31299L84.106 4.1428Z" fill="#060F0C"/>
<path d="M83.0491 15.9563C80.8721 15.9563 79.6335 14.468 79.6335 11.7644C79.6335 11.6341 79.6397 11.5099 79.6444 11.3842H87.2351V10.6299C87.2351 8.1235 85.4004 6.01281 82.5356 6.01281C79.579 6.01281 77.3164 8.61392 77.3164 11.7644C77.3164 15.261 79.4358 17.5129 82.7675 17.5129C84.6224 17.5129 86.3107 16.6221 87.607 15.0251L86.7729 14.1638C85.5996 15.351 84.3874 15.9563 83.0491 15.9563ZM82.5356 7.377C83.9766 7.377 84.932 8.4013 84.9818 10.11H79.8186C80.2232 8.40285 81.2627 7.377 82.5356 7.377Z" fill="#060F0C"/>
<path d="M92.3935 15.9416C91.7414 15.9416 91.452 15.6809 91.452 14.8971V7.55629H94.5502V6.31627H91.452V2.13835H90.3456C90.0297 5.54494 89.3917 6.20142 87.5042 6.42956V7.55629H89.2952V14.9577C89.2952 16.6741 90.2725 17.5122 91.9359 17.5122C93.0859 17.5122 94.1783 16.969 95.1416 15.9261L94.3215 15.029C93.6523 15.6141 92.8914 15.9416 92.3935 15.9416Z" fill="#060F0C"/>
<path d="M98.5083 4.448C99.3019 4.448 99.9461 3.80548 99.9461 3.01397C99.9461 2.22246 99.3019 1.57995 98.5083 1.57995C97.7147 1.57995 97.0704 2.22246 97.0704 3.01397C97.0704 3.80548 97.7147 4.448 98.5083 4.448Z" fill="#060F0C"/>
<path d="M36.1811 14.2717V9.91535C36.1811 7.44151 34.7697 6.01369 32.5056 6.01369C31.0537 6.01369 29.731 6.75708 28.732 8.00798V6.11767L24.8308 6.41565V7.45547C26.5192 7.57653 26.6888 7.74569 26.6888 9.35509V14.2717C26.6888 15.8811 26.5192 16.0503 24.8308 16.1714V17.2112H30.6756V16.1714C28.9872 16.0503 28.8472 15.8811 28.8472 14.2717V9.53667C29.8291 8.30751 31.0413 7.59205 32.0123 7.59205C33.3443 7.59205 34.0228 8.35096 34.0228 10.038V14.2717C34.0228 15.8811 33.8843 16.0503 32.1943 16.1714V17.2112H38.0406V16.1714C36.3507 16.0503 36.1811 15.8811 36.1811 14.2717Z" fill="#060F0C"/>
<path d="M58.7618 6.01244C57.4018 6.01244 56.202 6.64565 55.4286 7.61253V6.11797L51.5275 6.41595V7.45578C53.2174 7.57683 53.387 7.74599 53.387 9.35539V19.6807C53.387 21.2901 53.2174 21.4592 51.5275 21.5803V22.6201H57.7519V21.5803C55.7772 21.4313 55.5453 21.2901 55.5453 19.6807V16.3346C56.4386 17.1246 57.5932 17.5141 58.863 17.5141C61.9363 17.5141 64.0464 14.8618 64.0464 11.7641C64.0464 8.50336 61.8118 6.01244 58.7618 6.01244ZM58.3821 15.9684C57.3069 15.9684 56.3359 15.5059 55.5453 14.6616V9.11328C56.2721 8.1464 57.3582 7.55821 58.3323 7.55821C60.3677 7.55821 61.7309 9.07138 61.7309 11.7641C61.7309 14.5017 60.3164 15.9684 58.3821 15.9684Z" fill="#060F0C"/>
<path d="M99.5872 14.2717V6.11767L95.5693 6.41565V7.45547C97.2593 7.57653 97.4289 7.74569 97.4289 9.35509V14.2717C97.4289 15.8811 97.2593 16.0503 95.5693 16.1714V17.2112H101.417V16.1714C99.7273 16.0503 99.5872 15.8811 99.5872 14.2717Z" fill="#060F0C"/>
<path d="M71.0668 6.01244C69.7067 6.01244 68.5069 6.64565 67.7336 7.61253V6.11797L63.8324 6.41595V7.45578C65.5223 7.57683 65.6919 7.74599 65.6919 9.35539V19.6807C65.6919 21.2901 65.5223 21.4592 63.8324 21.5803V22.6201H70.0568V21.5803C68.0821 21.4313 67.8503 21.2901 67.8503 19.6807V16.3346C68.7435 17.1246 69.8981 17.5141 71.1679 17.5141C74.2412 17.5141 76.3513 14.8618 76.3513 11.7641C76.3513 8.50336 74.1167 6.01244 71.0668 6.01244ZM70.6871 15.9684C69.6118 15.9684 68.6408 15.5059 67.8503 14.6616V9.11328C68.577 8.1464 69.6632 7.55821 70.6373 7.55821C72.6727 7.55821 74.0358 9.07138 74.0358 11.7641C74.0358 14.5017 72.6213 15.9684 70.6871 15.9684Z" fill="#060F0C"/>
<path d="M7.41365 6.01248C6.13453 6.01248 4.98768 6.54947 4.20184 7.45582V0.000133514L0.18396 0.248449V1.28672C1.8739 1.40933 2.04353 1.57849 2.04353 3.18789V17.3077H2.76244L3.73657 16.0103C4.67491 17.0144 5.98205 17.5142 7.46347 17.5142C10.5601 17.5142 12.6982 14.8603 12.6982 11.7641C12.6982 8.5034 10.4636 6.01248 7.41365 6.01248ZM7.03398 15.9684C6.0334 15.9684 5.04837 15.5618 4.20184 14.6787V9.09781C4.94411 8.10299 6.02871 7.55825 6.98417 7.55825C9.01956 7.55825 10.3827 9.07142 10.3827 11.7641C10.3827 14.5157 8.93088 15.9684 7.03398 15.9684Z" fill="#060F0C"/>
<path d="M108.276 15.0298C107.609 15.6133 106.846 15.9423 106.348 15.9423C105.696 15.9423 105.408 15.6816 105.408 14.8979V7.55548H108.759V6.317H105.408V2.13753H104.3C103.986 5.54412 103.346 6.20215 101.46 6.43029V7.55548H103.25V14.9568C103.25 16.6733 104.229 17.5129 105.891 17.5129C107.041 17.5129 108.133 16.9682 109.096 15.9268L108.276 15.0298Z" fill="#060F0C"/>
</svg>
