<svg width="129" height="23" viewBox="0 0 129 23" fill="none" xmlns="http://www.w3.org/2000/svg">
<path d="M0.605347 0.0130672C4.21087 0.0177515 7.81782 -0.0362201 11.4216 0.0461629C14.1996 0.109707 16.3761 1.99158 16.8447 4.56206C17.375 7.47184 15.8612 9.95636 13.5259 10.6231C13.4666 10.64 13.4183 10.6949 13.3385 10.7504C15.5645 11.3859 16.8932 12.8553 17.2673 15.0569C17.8842 18.6893 15.8754 21.674 12.0801 22.0963C11.2383 22.1898 10.3836 22.1874 9.53471 22.1918C6.55836 22.2076 3.5818 22.2071 0.605449 22.2128L0.605347 0.0130672ZM5.39865 17.9745C5.46053 17.9957 5.5223 18.0353 5.58387 18.0353C7.07786 18.0377 8.57452 18.0906 10.0652 18.0201C11.6078 17.9471 12.5251 17.0016 12.566 15.6082C12.6071 14.2082 11.7599 13.1984 10.2491 13.0176C9.29415 12.9032 8.31874 12.9557 7.35242 12.9421C6.71213 12.9332 6.07152 12.9405 5.39865 12.9405V17.9745ZM5.36598 8.80972C6.75869 8.80972 8.08104 8.81206 9.4034 8.80768C9.65785 8.80677 9.91811 8.8089 10.1656 8.75921C11.0994 8.57224 11.8026 8.09475 12.0471 7.12407C12.437 5.57652 11.448 4.23955 9.84255 4.16022C9.09607 4.12346 8.34652 4.15004 7.59839 4.14933C6.87284 4.14841 6.14708 4.14912 5.39896 4.14912C5.38405 4.30941 5.3672 4.40717 5.3671 4.50493C5.36537 5.91073 5.36598 7.31654 5.36598 8.80972ZM86.5775 22.62C86.0138 22.5155 85.4443 22.4354 84.8876 22.3022C80.5282 21.2601 78.3069 17.518 78.6878 13.383C79.0068 9.92082 80.7568 7.38966 84.09 6.21786C88.7435 4.58181 94.1403 6.79067 94.9365 12.9661C95.0416 13.782 95.0365 14.6121 95.0865 15.5088H83.0688C83.3474 17.0302 84.1167 18.0975 85.458 18.6648C87.6377 19.5868 89.6797 19.1272 91.605 17.8914C91.7188 17.8184 91.8237 17.7316 91.9343 17.6531C91.9452 17.6454 91.9667 17.6521 92.0438 17.6521C92.6328 18.5168 93.2409 19.4097 93.9243 20.4132C93.3045 20.7988 92.7326 21.2169 92.1079 21.5299C90.9588 22.1058 89.7233 22.4111 88.4396 22.5177C88.2934 22.5298 88.1509 22.5848 88.0068 22.6199L86.5775 22.62ZM90.9385 12.5866C91.0221 10.5928 89.1174 9.07021 86.7059 9.16512C84.7 9.24404 82.9168 10.9382 83.1308 12.5866H90.9385ZM103.833 22.62C103.14 22.4808 102.435 22.3824 101.755 22.1953C98.5057 21.3014 96.2644 18.5613 95.9696 15.2123C95.6912 12.0533 96.6094 9.37611 99.152 7.38324C103.005 4.36338 110.577 5.04841 112.081 12.1935C112.189 12.7054 112.252 13.231 112.285 13.7534C112.32 14.3081 112.293 14.8669 112.293 15.5085H100.354C100.457 16.4017 100.805 17.1198 101.382 17.7138C102.703 19.0731 104.351 19.3289 106.131 19.0173C107.266 18.8186 108.313 18.3888 109.256 17.5833L111.178 20.3932C110.678 20.7271 110.224 21.0803 109.726 21.352C108.489 22.0274 107.149 22.3838 105.746 22.5146C105.583 22.5298 105.424 22.5839 105.263 22.6198C104.786 22.62 104.31 22.62 103.833 22.62ZM100.382 12.5838H108.198C108.298 10.6512 106.438 9.11614 104.101 9.16165C102.028 9.20188 100.233 10.8375 100.382 12.5838ZM24.8042 22.62C24.2934 22.5157 23.7793 22.4254 23.2725 22.3048C20.133 21.5586 18.2784 19.2148 18.2757 15.993C18.2732 12.9048 18.2752 9.81654 18.2752 6.72835V6.17489H22.5189V6.7646C22.5189 9.68324 22.5274 12.6018 22.515 15.5203C22.5091 16.8441 22.9152 17.9652 24.1729 18.5413C25.5361 19.1656 26.9321 19.1428 28.1932 18.247C29.117 17.5911 29.378 16.587 29.38 15.5082C29.3856 12.6066 29.382 9.70493 29.382 6.8034V6.16532H33.5795L33.5798 6.73731C33.5798 9.7917 33.5812 12.846 33.5792 15.9004C33.5771 19.586 31.277 22.1195 27.5908 22.5058C27.4088 22.5249 27.2307 22.5808 27.0507 22.6196C26.3017 22.62 25.5529 22.62 24.8042 22.62ZM64.874 22.1618V0.0280366H80.31V2.17509C80.31 2.65024 80.278 3.12814 80.319 3.59983C80.3596 4.06949 80.1705 4.16063 79.7372 4.15819C76.6915 4.14087 73.6456 4.14902 70.5998 4.14902H69.6365V8.80972H70.2113C72.5085 8.80972 74.8057 8.82285 77.1026 8.79892C77.567 8.79414 77.6756 8.94129 77.665 9.37866C77.6365 10.5449 77.6552 11.7122 77.6552 12.9368H69.6019V22.1618H64.874ZM113.368 22.1531V21.5708C113.368 16.6175 113.368 11.6644 113.368 6.71104C113.368 6.06084 113.369 6.05513 114.042 6.06134C116.371 6.08273 118.709 5.98375 121.026 6.16267C124.328 6.41745 126.912 7.90045 128.135 11.1508C129.378 14.4536 128.431 18.2231 125.905 20.2881C124.416 21.5047 122.665 22.1038 120.779 22.1717C118.384 22.2581 115.984 22.1989 113.586 22.2007C113.537 22.2008 113.488 22.1802 113.368 22.1531ZM117.415 18.7561C118.229 18.7561 118.99 18.7563 119.752 18.7561C122.492 18.7552 124.218 17.2149 124.525 14.4955C124.745 12.5429 123.686 10.6009 122 9.91135C120.514 9.30422 118.962 9.62703 117.415 9.54119C117.415 12.6419 117.415 15.6566 117.415 18.7561ZM42.1344 9.79027H34.9443V6.15829H47.9428C47.9428 6.84352 47.9083 7.53212 47.9529 8.21583C47.994 8.84607 47.8017 9.33294 47.4028 9.82775C45.2409 12.5108 43.1132 15.2209 40.9743 17.9223C40.8595 18.0672 40.7504 18.2165 40.5716 18.4519H48.0291V22.1536H34.9049C34.9049 21.1425 34.89 20.1318 34.919 19.1223C34.924 18.9489 35.0986 18.7683 35.2216 18.6122C37.4159 15.8249 39.6147 13.0412 41.8111 10.2555C41.9025 10.1394 41.9805 10.0125 42.1344 9.79027ZM49.1906 9.79434C49.1906 8.64821 49.1896 7.5976 49.1922 6.54689C49.1924 6.431 49.2116 6.31511 49.2253 6.16481H62.1836C62.1836 7.14128 62.1943 8.10208 62.1722 9.06216C62.1689 9.20687 62.0257 9.35931 61.9233 9.48915C59.692 12.3132 57.4571 15.1344 55.2242 17.9571C55.1139 18.0965 55.0155 18.2454 54.8438 18.4839H55.4943C57.6034 18.4839 59.7128 18.4927 61.8222 18.4762C62.2141 18.4733 62.3604 18.5693 62.349 18.9858C62.3203 20.0336 62.3395 21.0828 62.3395 22.1629H49.2033C49.2033 21.1166 49.1949 20.0875 49.2139 19.0591C49.2162 18.9302 49.3519 18.7956 49.4443 18.6783C51.5868 15.9573 53.7323 13.2385 55.8769 10.519C56.0406 10.3111 56.2009 10.1006 56.4378 9.79424L49.1906 9.79434Z" fill="#060F0C"/>
</svg>
