<svg width="83" height="23" viewBox="0 0 83 23" fill="none" xmlns="http://www.w3.org/2000/svg">
<path d="M11.359 3.3042C11.359 1.30791 10.9725 0.743447 9.56446 0.0550713V0H16.7012V19.0542C16.7012 20.9266 16.8531 21.4085 18.1369 22.2483V22.3034H11.359V18.6137C10.7378 20.844 8.97087 22.6063 6.34807 22.6063C2.88321 22.6063 0.0533447 19.6875 0.0533447 15.103C0.0533447 10.3394 3.03506 7.26925 6.74839 7.26925C9.19174 7.26925 10.7516 8.63223 11.3728 10.601L11.359 3.3042ZM11.359 16.521V13.1204C11.359 10.4358 10.02 8.71484 8.48773 8.71484C6.58274 8.71484 5.68547 10.9176 5.68547 15.0892C5.68547 18.5448 6.69318 20.4723 8.55675 20.4723C10.0752 20.4861 11.359 18.8753 11.359 16.521ZM33.2525 14.2631H23.7552C23.7552 17.9528 25.7016 20.1556 28.5591 20.1556C30.3812 20.1556 31.9687 19.3571 32.8798 17.4985L33.0869 17.5811C32.2172 20.7752 29.5254 22.5787 26.1295 22.5787C21.864 22.5787 18.3301 19.7839 18.3301 14.924C18.3301 10.2568 21.8916 7.24171 26.1571 7.24171C30.9748 7.26925 33.2525 10.3256 33.2525 14.2631ZM28.1035 13.6298C28.1035 10.2981 27.8689 7.76488 26.1571 7.76488C24.6111 7.76488 23.8242 10.1191 23.769 13.6298H28.1035ZM40.4721 19.0542C40.4721 21.023 40.5549 21.4085 41.8801 22.2483V22.3034H33.7633V22.2483C35.0471 21.4222 35.1299 21.023 35.1299 19.0542V3.3042C35.1299 1.30791 34.771 0.743447 33.3629 0.0550713V0H40.4583L40.4721 19.0542ZM49.4587 19.0542C49.4587 21.023 49.5415 21.4085 50.8667 22.2483V22.3034H42.7222V22.2483C44.0336 21.4222 44.1302 21.023 44.1302 19.0542V10.8626C44.1302 8.83874 43.9508 8.42572 42.5428 7.61343V7.55837H49.4725L49.4587 19.0542ZM46.7116 0.0826059C48.4372 0.0826059 49.7624 1.30791 49.7624 2.91871C49.7624 4.52951 48.451 5.78236 46.7116 5.78236C45.0137 5.78236 43.7299 4.52951 43.7299 2.91871C43.7299 1.30791 45.0137 0.0826059 46.7116 0.0826059ZM55.3669 9.60972C55.3669 10.9452 56.2918 11.372 59.0388 12.198C62.9178 13.4233 64.5329 14.7588 64.5329 17.65C64.5329 20.6926 62.0481 22.5925 58.4728 22.5925C56.416 22.5925 55.008 21.9729 53.9312 21.9729C53.1858 21.9729 52.8269 22.3034 52.4128 22.62L52.0815 17.1681H52.1367C53.8346 20.3622 55.8362 22.0831 58.4728 22.0831C59.9361 22.0831 61.0128 21.3672 61.0128 19.9354C61.0128 18.4209 59.7014 18.0354 57.4513 17.3471C53.7794 16.2181 52.1643 14.7312 52.1643 11.8676C52.1643 9.10032 54.5248 7.25548 57.5617 7.25548C59.4391 7.25548 60.5849 7.97139 61.6478 7.97139C62.338 7.97139 62.7797 7.68227 63.3181 7.22794V12.0466H63.2767C61.9653 9.48582 59.6876 7.76488 57.5756 7.76488C56.2365 7.76488 55.3669 8.52209 55.3669 9.60972ZM71.5454 0V11.4408C72.2909 8.75614 74.2096 7.26925 76.7358 7.26925C79.966 7.26925 81.4569 9.52712 81.4569 12.4183V19.0542C81.4569 21.023 81.5397 21.4085 82.8649 22.2483V22.3034H74.748V22.2483C76.0318 21.4222 76.1146 21.023 76.1146 19.0542V12.2669C76.1146 10.9039 75.521 9.7887 74.113 9.7887C72.6222 9.7887 71.5454 11.0415 71.5454 13.7262V19.0542C71.5454 21.023 71.6283 21.4085 72.9535 22.2483V22.3034H64.8366V22.2483C66.1204 21.4222 66.2032 21.023 66.2032 19.0542V3.3042C66.2032 1.30791 65.8443 0.743447 64.4363 0.0550713V0H71.5454Z" fill="#060F0C"/>
</svg>
