<svg width="153" height="23" viewBox="0 0 153 23" fill="none" xmlns="http://www.w3.org/2000/svg">
<path fill-rule="evenodd" clip-rule="evenodd" d="M72.7921 6.11388C72.7921 9.17083 72.4859 18.647 72.4859 18.647C72.4859 20.4808 73.0983 21.2957 74.8355 21.2957V22.1105H67.9906V21.2957C69.727 21.2957 70.6463 20.4808 70.6463 18.647L71.2595 3.159C70.7487 1.93588 70.2378 1.52846 68.91 1.42725V0.714478H74.12L79.637 15.1835L85.2563 0.714478H89.9554V1.42725C88.6276 1.42725 87.9129 2.03881 87.9129 3.46521L88.5261 18.4437C88.5261 20.6858 88.9346 21.2965 90.7742 21.2965V22.1114H82.9076V21.2965C84.4393 21.2965 85.1557 20.7871 85.0525 18.4437C85.0525 18.4437 84.7455 7.94857 84.644 6.11474L80.8651 16.5078C80.2975 17.972 79.8196 19.4692 79.434 20.9912L78.2094 21.0933C77.9023 19.9722 77.0853 17.9351 77.0853 17.9351C77.0853 17.9351 73.9153 9.06876 72.7921 6.11388ZM66.3557 22.2126C65.9472 22.1105 65.5387 22.1105 65.1293 22.1105C64.3123 22.1105 62.8813 22.5179 61.1449 22.5179C54.5038 22.5179 49.6 18.5441 49.6 11.2079C49.6 4.99282 54.1977 0.204125 61.2464 0.204125C62.8804 0.204125 64.72 0.510337 66.2525 1.12103C66.5587 0.814821 66.661 0.611542 66.9672 0.306193H67.5804C67.478 1.42725 67.0695 5.09489 67.0695 5.09489H66.4563C66.0478 2.95572 64.9238 1.52846 61.3478 1.52846C57.0572 1.52846 53.1751 4.89075 53.1751 11.1067C53.1751 18.1375 57.1596 21.1936 61.5525 21.1936C64.4138 21.1936 66.1502 19.5639 67.2742 17.526L67.9898 17.8322L66.3557 22.2126ZM47.0458 4.68747H46.3311C46.2288 2.75158 45.6156 2.14002 44.083 2.14002H41.1203V18.1375C41.1203 20.7862 41.6311 21.2957 43.3684 21.2957V22.1105H35.7056V21.2957C37.4428 21.2957 37.9537 20.7862 37.9537 18.0346V2.14002H34.9909C33.0499 2.14002 32.7429 2.64951 32.232 4.68747H31.5173L32.0282 0.102051L32.539 0.204125C32.7429 0.713617 33.1522 0.713614 34.3777 0.713614H44.2877C46.1273 0.713614 46.5358 0.713613 46.9443 0.102051H47.5575L47.0458 4.68747Z" fill="#060F0C"/>
<path fill-rule="evenodd" clip-rule="evenodd" d="M25.3872 22.62C23.957 22.62 22.833 22.4167 22.0159 22.1105C21.1989 21.9073 20.5857 21.601 20.2796 21.3978C19.8711 21.8052 19.564 22.3147 19.564 22.3147L18.9508 22.1114L19.4617 17.3227L20.1772 17.4248C20.5857 19.666 22.1183 21.2966 25.2857 21.2966C27.7376 21.2966 29.3725 19.2595 29.3725 17.0173C29.3725 15.1835 28.657 14.2658 26.2051 12.4319C25.3881 11.9224 24.6725 11.515 24.0593 11.0055C21.8121 9.57999 20.3811 7.94944 20.3811 5.29992C20.3811 2.24297 22.9353 0.205007 26.3066 0.205007C28.2476 0.205007 29.474 0.816571 29.8825 1.01985L30.5972 0.205007L31.108 0.307075L30.5972 4.68835L29.8825 4.58629C29.8825 2.54919 28.6561 1.63141 26.6127 1.63141C24.6717 1.63141 23.2415 2.65039 23.2415 4.58629C23.2415 6.3189 24.5693 7.43909 26.1019 8.45894C26.9189 8.96843 27.5321 9.37585 28.1444 9.78327C31.7204 12.3299 32.5374 13.9604 32.5374 16.4058C32.5391 19.9714 29.7802 22.62 25.3872 22.62ZM13.7409 4.68749H12.9239C12.9239 2.8528 12.1068 2.14003 10.472 2.14003H5.8743V10.1898H8.83706C10.3696 10.1898 10.6766 9.37498 10.8805 8.04979H11.5951V13.7563H10.8805C10.6766 12.2278 10.3696 11.6162 8.73472 11.6162H5.8743V18.4438C5.8743 20.9903 6.4875 21.2966 8.12239 21.2966V22.1114H0.3573V21.2966C2.29836 21.2966 2.60452 20.7871 2.60452 18.4438V3.46436C2.60452 2.03796 1.99133 1.4264 0.3573 1.4264V0.713631H10.9819C12.8206 0.713631 13.2292 0.611562 13.5362 0H14.2517L13.7409 4.68749ZM123.977 5.90975V18.1367C123.977 20.7853 124.588 21.2948 126.223 21.2948V22.1097H114.169V21.2948C115.089 21.2948 115.906 20.9886 115.906 20.3779C115.906 19.9696 115.804 19.2569 115.599 18.5432L114.678 15.5883H107.937C107.834 15.9966 106.609 19.3581 106.609 20.2758C106.609 21.0907 107.529 21.2948 108.141 21.2948V22.1097H102.521V21.2948C103.543 21.2948 104.361 21.1928 105.075 19.0536L110.286 2.44452C109.979 1.73175 109.572 1.5276 108.857 1.42553V0.712766H113.455L118.97 18.1367C119.482 19.9705 119.992 20.8883 120.809 21.2948C122.036 20.8874 122.343 20.48 122.343 18.1367V3.46436C121.423 2.24124 121.319 1.4264 119.583 1.4264V0.713631H124.794L133.376 15.2839V4.178C133.376 1.93589 132.866 1.4264 131.128 1.4264V0.713631H142.57V1.4264C141.856 1.4264 141.243 1.73261 141.243 2.44538C141.243 2.95487 141.447 3.46437 141.651 4.07593L144.921 11.1067L148.088 4.28007C148.598 3.36316 148.701 2.85367 148.701 2.34418C148.701 1.73262 148.291 1.4264 147.374 1.4264V0.713631H152.787V1.4264C151.46 1.4264 150.641 2.64953 150.029 4.07506L145.84 12.6343V18.2387C145.84 20.685 146.453 21.2957 148.088 21.2957V22.1105H140.323V21.2957C141.958 21.2957 142.571 20.685 142.571 18.2387V13.45L138.075 3.97386C137.259 2.14004 136.952 1.73262 136.44 1.4264C135.419 1.83382 135.112 2.54746 135.112 4.178V19.8693C135.112 19.8693 135.216 21.0924 135.317 22.518L133.989 22.62L123.977 5.90975ZM111.207 4.89077L108.345 14.1637H114.271L111.207 4.89077Z" fill="#060F0C"/>
<path fill-rule="evenodd" clip-rule="evenodd" d="M98.5367 14.1635H97.005V18.544C97.005 20.7861 97.6165 21.2955 99.3546 21.2955V22.1104H91.488V21.2955C93.1229 21.2955 93.7361 20.6849 93.7361 18.4427V4.07579C93.7361 1.83455 93.1229 1.42713 91.488 1.42713V0.714355H97.4135C103.134 0.714355 106.505 2.44611 106.505 7.13274C106.506 12.0235 102.42 14.1635 98.5367 14.1635ZM97.515 2.13989H97.005V12.6342H97.9235C101.297 12.6342 103.033 11.1057 103.033 7.23394C103.033 3.36215 101.499 2.13989 97.515 2.13989ZM62.8813 18.0345C58.9992 18.0345 56.3426 15.2829 56.3426 11.3099C56.3426 7.54015 59.1015 4.58528 62.8813 4.58528C66.5596 4.58528 69.3177 7.43808 69.3177 11.3099C69.3185 15.0796 66.4572 18.0345 62.8813 18.0345ZM62.8813 5.80754C60.2256 5.80754 59.3054 8.35499 59.3054 11.3099C59.3054 14.0615 60.1232 16.8122 62.8813 16.8122C65.5379 16.8122 66.3549 14.0606 66.3549 11.2078C66.3558 8.45707 65.3341 5.80754 62.8813 5.80754ZM17.93 16.8122V16.0986C18.9517 16.0986 19.1564 15.7932 19.1564 15.4879C19.1564 15.0796 19.054 14.7742 18.9517 14.4689C18.9517 14.4689 18.747 13.6532 18.5432 13.0425H14.5587L14.1502 14.3668C14.0487 14.673 13.9464 14.9784 13.9464 15.3858C13.9464 15.7941 14.3549 16.0986 14.9681 16.0986V16.8122H10.9836V16.0986C12.0053 16.0986 12.4138 15.7932 12.8224 14.673L15.8875 5.50219C15.7851 5.09391 15.4781 4.78855 14.8658 4.78855V4.07492H18.1338C19.2486 7.33877 20.3724 10.5996 21.5051 13.8573C22.0159 15.5891 22.5268 16.0986 23.3438 16.0986V16.8122H17.93ZM16.4989 6.9286L14.9664 11.9214H18.1338L16.4989 6.9286Z" fill="#060F0C"/>
</svg>
